<?xml version="1.0" encoding="utf-8"?>
<!-- Generator: Adobe Illustrator 26.0.0, SVG Export Plug-In . SVG Version: 6.00 Build 0)  -->
<svg version="1.1" id="Layer_1" xmlns="http://www.w3.org/2000/svg" xmlns:xlink="http://www.w3.org/1999/xlink" x="0px" y="0px"
	 viewBox="0 0 22 20" style="enable-background:new 0 0 22 20;" xml:space="preserve">
<style type="text/css">
	.st0{fill:none;stroke:#DE5F35;stroke-width:2;}
</style>
<path id="Vector" class="st0" d="M10.1,17.8L10.1,17.8c-2.9-2.6-5.1-4.6-6.7-6.5C1.8,9.4,1,7.7,1,6c0-2.8,2.2-5,5.1-5
	c1.6,0,3.2,0.8,4.2,1.9L11,3.8l0.8-0.9c1-1.2,2.6-1.9,4.2-1.9C18.8,1,21,3.2,21,6c0,1.7-0.8,3.4-2.3,5.3c-1.6,1.9-3.9,4-6.7,6.5l0,0
	L11,18.7L10.1,17.8z"/>
</svg>
