<svg id="Layer_1" data-name="Layer 1" xmlns="http://www.w3.org/2000/svg" viewBox="0 0 619.51 621.64"><defs><style>.cls-1{fill:#de5f35;}.cls-2{fill:#4c8e30;}.cls-3{fill:#ef8a6f;}</style></defs><path class="cls-1" d="M474,210.89c17.77,37.48,12.57,72.72-10.41,106.2-13,18.88-29.35,34.45-47.42,48.28C349.05,416.69,282.08,468.18,214.61,519c-37.31,28.12-75.55,55-117.83,75.47-14.92,7.22-30.28,13.16-47,15-26.4,3-41.93-12.62-38.89-39.15,2.37-20.71,10.83-39.26,20.33-57.39,21.41-40.9,48.16-78.35,75.93-115q75.62-99.86,152.2-199c15.41-20,33.6-37.23,56-49.55,29.63-16.31,59.95-18.43,91.05-4.35a23.61,23.61,0,0,0,2.77.91C436.76,161.63,458.71,182.93,474,210.89ZM205.31,320c-6.61.08-9.88,4-12.62,8.46-3.22,5.28-1.06,10.37,2.35,14.08,8.7,9.45,17.76,18.64,27.26,27.29,6,5.49,14.16,4.71,19-.54,4.19-4.52,3.64-14-1.47-19.26-8.28-8.53-16.63-17-25.3-25.15C212.11,322.54,208.43,321.55,205.31,320ZM219.1,474.74c-2-4.31-2.65-7.67-4.65-9.76-9.22-9.68-18.64-19.2-28.35-28.39-5.08-4.81-12-4.13-17,.78s-6,11.95-1.29,17c9.31,9.92,19,19.49,28.85,28.91,3.8,3.65,9.19,4.55,13.49,1.7C213.74,482.58,216.12,478.27,219.1,474.74Zm84.7-250.47c.39.94.83,4.16,2.65,6.07,9.22,9.67,18.55,19.27,28.36,28.34,5,4.65,13.8,3.74,17.86-.73,4.92-5.41,4.8-12.63-.7-18.27-8.82-9.05-17.89-17.86-26.77-26.85-4.27-4.34-9.31-3.77-14.19-2C305.87,212.62,303.73,216.9,303.8,224.27Zm12.68,95.64c-6.26.91-10.3,3.49-12.53,8.58s-1.23,9.55,2.48,13.34c8.68,8.87,17.48,17.63,26.3,26.36,6.39,6.31,12.67,6.67,18.5,1.26,5.6-5.21,5.73-13.34-.14-19.42-8.27-8.58-16.66-17.07-25.35-25.23C323.28,322.5,319.6,321.5,316.48,319.91Z"/><path class="cls-2" d="M474,210.89c-15.27-28-37.22-49.26-64.83-64.89-3.74-23.23-4.11-46.48,0-69.71,3-16.85,7.46-33.24,16.62-47.91,5.38-8.62,11.79-17.31,23.12-16.59,11.78.74,16.76,10.59,20.83,20.18,7.46,17.6,8.76,36.25,8.66,55.08,0,1.83,0,3.67,0,6.37,8.52-7,16.09-13.79,24.14-19.89,13.25-10,27.27-18.77,43.88-22.19,17-3.5,26.16,5.58,22.76,22.4-3.37,16.63-12.1,30.66-22.09,43.93-6.1,8.11-12.87,15.71-19.48,23.7,12.17.89,24.31.72,36,2.93,11.06,2.1,22.36,5.33,32.29,10.49,16.53,8.59,17.33,23.21,2.84,35-15.78,12.83-34.84,17.89-54.34,21.45A195.51,195.51,0,0,1,474,210.89Z"/><path class="cls-3" d="M205.31,320c3.12,1.59,6.8,2.58,9.25,4.88,8.67,8.13,17,16.62,25.3,25.15,5.11,5.25,5.66,14.74,1.47,19.26-4.87,5.25-13,6-19,.54C212.8,361.14,203.74,352,195,342.5c-3.41-3.71-5.57-8.8-2.35-14.08C195.43,323.92,198.7,320,205.31,320Z"/><path class="cls-3" d="M219.1,474.74c-3,3.53-5.36,7.84-9,10.25-4.3,2.85-9.69,1.95-13.49-1.7-9.83-9.42-19.54-19-28.85-28.91-4.74-5.06-3.77-12.07,1.29-17s12-5.59,17-.78c9.71,9.19,19.13,18.71,28.35,28.39C216.45,467.07,217.12,470.43,219.1,474.74Z"/><path class="cls-3" d="M303.8,224.27c-.07-7.37,2.07-11.65,7.21-13.48,4.88-1.73,9.92-2.3,14.19,2,8.88,9,17.95,17.8,26.77,26.85,5.5,5.64,5.62,12.86.7,18.27-4.06,4.47-12.83,5.38-17.86.73-9.81-9.07-19.14-18.67-28.36-28.34C304.63,228.43,304.19,225.21,303.8,224.27Z"/><path class="cls-3" d="M316.48,319.91c3.12,1.59,6.8,2.59,9.26,4.89,8.69,8.16,17.08,16.65,25.35,25.23,5.87,6.08,5.74,14.21.14,19.42-5.83,5.41-12.11,5.05-18.5-1.26-8.82-8.73-17.62-17.49-26.3-26.36-3.71-3.79-4.68-8.32-2.48-13.34S310.22,320.82,316.48,319.91Z"/></svg>