<?xml version="1.0" encoding="utf-8"?>
<!-- Generator: Adobe Illustrator 26.0.0, SVG Export Plug-In . SVG Version: 6.00 Build 0)  -->
<svg version="1.1" id="Layer_1" xmlns="http://www.w3.org/2000/svg" xmlns:xlink="http://www.w3.org/1999/xlink" x="0px" y="0px"
	 viewBox="0 0 23 20" style="enable-background:new 0 0 23 20;" xml:space="preserve">
<style type="text/css">
	.st0{fill:#DE5F35;}
</style>
<path id="Vector" class="st0" d="M10.7,17.8L10.7,17.8c-2.9-2.6-5.1-4.6-6.7-6.5C2.4,9.4,1.7,7.7,1.7,6c0-2.8,2.2-5,5-5
	c1.6,0,3.2,0.8,4.2,1.9l0.8,0.9l0.8-0.9C13.4,1.8,15,1,16.6,1c2.8,0,5,2.2,5,5c0,1.7-0.8,3.4-2.3,5.3c-1.6,1.9-3.9,4-6.7,6.5l0,0
	l-0.9,0.8L10.7,17.8z"/>
</svg>
